HIERARCHY
ROOT Hips
{
	OFFSET 0.00000 0.00000 0.00000
	CHANNELS 6 Xposition Yposition Zposition Zrotation Yrotation Xrotation 
	JOINT LHipJoint
	{
		OFFSET 0 0 0
		CHANNELS 3 Zrotation Yrotation Xrotation
		JOINT LeftUpLeg
		{
			OFFSET 2.36090 -1.39315 1.24752
			CHANNELS 3 Zrotation Yrotation Xrotation
			JOINT LeftLeg
			{
				OFFSET 2.06810 -5.68207 0.00000
				CHANNELS 3 Zrotation Yrotation Xrotation
				JOINT LeftFoot
				{
					OFFSET 2.46631 -6.77613 0.00000
					CHANNELS 3 Zrotation Yrotation Xrotation
					JOINT LeftToeBase
					{
						OFFSET 0.26031 -0.71520 1.99545
						CHANNELS 3 Zrotation Yrotation Xrotation
						End Site
						{
							OFFSET 0.00000 -0.00000 1.05957
						}
					}
				}
			}
		}
	}
	JOINT RHipJoint
	{
		OFFSET 0 0 0
		CHANNELS 3 Zrotation Yrotation Xrotation
		JOINT RightUpLeg
		{
			OFFSET -2.25243 -1.39315 1.24752
			CHANNELS 3 Zrotation Yrotation Xrotation
			JOINT RightLeg
			{
				OFFSET -2.17343 -5.97145 0.00000
				CHANNELS 3 Zrotation Yrotation Xrotation
				JOINT RightFoot
				{
					OFFSET -2.52372 -6.93386 0.00000
					CHANNELS 3 Zrotation Yrotation Xrotation
					JOINT RightToeBase
					{
						OFFSET -0.22538 -0.61923 2.11447
						CHANNELS 3 Zrotation Yrotation Xrotation
						End Site
						{
							OFFSET -0.00000 -0.00000 1.10506
						}
					}
				}
			}
		}
	}
	JOINT LowerBack
	{
		OFFSET 0 0 0
		CHANNELS 3 Zrotation Yrotation Xrotation
		JOINT Spine
		{
			OFFSET 0.01594 2.13103 0.08007
			CHANNELS 3 Zrotation Yrotation Xrotation
			JOINT Spine1
			{
				OFFSET 0.01393 2.09723 0.18338
				CHANNELS 3 Zrotation Yrotation Xrotation
				JOINT Neck
				{
					OFFSET 0 0 0
					CHANNELS 3 Zrotation Yrotation Xrotation
					JOINT Neck1
					{
						OFFSET 0.05351 1.38915 0.32494
						CHANNELS 3 Zrotation Yrotation Xrotation
						JOINT Head
						{
							OFFSET 0.00711 1.45992 -0.21666
							CHANNELS 3 Zrotation Yrotation Xrotation
							End Site
							{
								OFFSET -0.00433 1.47702 -0.11056
							}
						}
					}
				}
				JOINT LeftShoulder
				{
					OFFSET 0 0 0
					CHANNELS 3 Zrotation Yrotation Xrotation
					JOINT LeftArm
					{
						OFFSET 2.87198 0.92249 0.11132
						CHANNELS 3 Zrotation Yrotation Xrotation
						JOINT LeftForeArm
						{
							OFFSET 5.52731 -0.00000 0.00000
							CHANNELS 3 Zrotation Yrotation Xrotation
							JOINT LeftHand
							{
								OFFSET 3.11059 -0.00000 0.00000
								CHANNELS 3 Zrotation Yrotation Xrotation
								JOINT LeftFingerBase
								{
									OFFSET 0 0 0
									CHANNELS 3 Zrotation Yrotation Xrotation
									JOINT LeftHandIndex1
									{
										OFFSET 0.41963 -0.00000 0.00000
										CHANNELS 3 Zrotation Yrotation Xrotation
										End Site
										{
											OFFSET 0.33831 -0.00000 0.00000
										}
									}
								}
								JOINT LThumb
								{
									OFFSET 0 0 0
									CHANNELS 3 Zrotation Yrotation Xrotation
									End Site
									{
										OFFSET 0.34348 -0.00000 0.34348
									}
								}
							}
						}
					}
				}
				JOINT RightShoulder
				{
					OFFSET 0 0 0
					CHANNELS 3 Zrotation Yrotation Xrotation
					JOINT RightArm
					{
						OFFSET -2.94710 0.68072 0.32187
						CHANNELS 3 Zrotation Yrotation Xrotation
						JOINT RightForeArm
						{
							OFFSET -5.25396 -0.00000 -0.00000
							CHANNELS 3 Zrotation Yrotation Xrotation
							JOINT RightHand
							{
								OFFSET -3.10567 -0.00000 0.00000
								CHANNELS 3 Zrotation Yrotation Xrotation
								JOINT RightFingerBase
								{
									OFFSET 0 0 0
									CHANNELS 3 Zrotation Yrotation Xrotation
									JOINT RightHandIndex1
									{
										OFFSET -0.49868 -0.00000 0.00000
										CHANNELS 3 Zrotation Yrotation Xrotation
										End Site
										{
											OFFSET -0.40204 -0.00000 0.00000
										}
									}
								}
								JOINT RThumb
								{
									OFFSET 0 0 0
									CHANNELS 3 Zrotation Yrotation Xrotation
									End Site
									{
										OFFSET -0.40818 -0.00000 0.40818
									}
								}
							}
						}
					}
				}
			}
		}
	}
}
MOTION
Frames: 13
Frame Time: .0083333
3.8187 1.9305 15.7547 -51.3971 -8.1564 -61.3691 0.0000 0.0000 0.0000 -15.9232 7.1139 -87.9334 32.6685 15.6048 129.8829 1.1773 -5.2251 22.9989 1.5236 7.7940 22.0900 0.0000 0.0000 0.0000 15.5086 15.1187 -61.8878 -33.7044 -14.7088 133.8431 -0.0107 16.2712 23.1804 -0.4151 4.1357 -11.4588 -10.6453 6.7221 -6.2516 1.3525 9.5439 -1.1417 7.7687 4.7793 0.3124 1.1848 4.0870 -19.3395 1.1300 6.2332 34.7492 1.4697 3.0750 15.4478 0.0000 0.0000 0.0000 35.4453 -51.8480 -42.8343 17.4169 -27.4041 -4.2775 -0.0000 0.0000 -20.5301 -8.4053 13.6807 -2.0015 -7.1250 0.0000 -0.0000 -31.2454 41.4003 3.1222 0.0000 0.0000 0.0000 86.4799 33.5514 112.1367 -83.8968 59.8588 -54.7169 0.0000 -0.0000 -21.7525 -39.2399 0.0129 -0.0105 7.1250 -0.0000 -0.0000 -9.9528 -29.8869 -3.7204
3.8440 1.9412 15.7690 -51.9104 -7.8203 -61.3735 0.0000 0.0000 0.0000 -16.1272 7.0602 -87.7111 32.6582 15.6131 129.8444 1.1851 -5.1912 23.0437 1.5426 7.8401 22.2294 0.0000 0.0000 0.0000 15.4885 15.2316 -61.6990 -33.6970 -14.7157 133.8140 -0.0678 16.0478 23.4137 -0.4009 4.0649 -11.2593 -10.7855 6.6069 -6.2934 1.3851 9.4096 -1.0791 7.8911 4.7057 0.4016 1.0602 4.0112 -19.3792 1.1233 6.1770 34.8622 1.4825 3.0312 15.5065 -0.0000 -0.0000 0.0000 35.8258 -51.9647 -43.5236 17.3834 -27.3604 -4.2620 -0.0000 0.0000 -20.4358 -8.2145 13.6031 -1.9446 -7.1250 0.0000 -0.0000 -31.0603 41.3528 3.1403 -0.0000 -0.0000 0.0000 86.2423 33.5641 112.0125 -84.1201 59.8690 -54.9101 0.0000 -0.0000 -21.6627 -39.5333 -0.0430 0.0355 7.1250 -0.0000 -0.0000 -10.1887 -29.9545 -3.7943
3.8701 1.9526 15.7832 -52.4271 -7.4724 -61.3953 0.0000 0.0000 0.0000 -16.3388 7.0115 -87.4569 32.6443 15.6243 129.7927 1.1937 -5.1513 23.0905 1.5568 7.8745 22.3335 0.0000 0.0000 0.0000 15.4603 15.3282 -61.4947 -33.6870 -14.7249 133.7748 -0.1353 15.7941 23.7016 -0.3733 3.9244 -10.8641 -10.9392 6.4956 -6.3260 1.4238 9.2802 -1.0220 8.0254 4.6355 0.4765 0.9194 3.9315 -19.3841 1.1164 6.1216 34.9628 1.4966 2.9861 15.5507 0.0000 0.0000 0.0000 36.1773 -52.1131 -44.2235 17.3482 -27.3145 -4.2459 -0.0000 0.0000 -20.2364 -8.0572 13.5073 -1.8937 -7.1250 0.0000 -0.0000 -30.8943 41.2860 3.1770 0.0000 0.0000 0.0000 85.9925 33.5447 111.8523 -84.2999 59.8769 -55.0656 0.0000 -0.0000 -21.5032 -39.8350 -0.0342 0.0285 7.1250 -0.0000 -0.0000 -10.4225 -29.9395 -3.8878
3.8971 1.9643 15.7975 -52.9542 -7.1143 -61.4206 0.0000 0.0000 0.0000 -16.5540 6.9478 -87.1895 32.6279 15.6374 129.7319 1.2028 -5.1055 23.1389 1.5718 7.9105 22.4426 0.0000 0.0000 0.0000 15.4225 15.4076 -61.2941 -33.6758 -14.7353 133.7306 -0.2083 15.5374 24.0323 -0.3400 3.7472 -10.3664 -11.1011 6.3843 -6.3586 1.4668 9.1509 -0.9723 8.1680 4.5661 0.5424 0.7649 3.8495 -19.3636 1.1082 6.0688 35.0550 1.5118 2.9406 15.5847 0.0000 -0.0000 0.0000 36.5090 -52.2869 -44.9252 17.3116 -27.2667 -4.2291 -0.0000 0.0000 -19.9599 -7.8998 13.3899 -1.8405 -7.1250 0.0000 -0.0000 -30.7190 41.2000 3.2282 0.0000 -0.0000 0.0000 85.7406 33.4993 111.6634 -84.4097 59.8816 -55.1606 0.0000 -0.0000 -21.2397 -40.1660 0.0099 -0.0084 7.1250 -0.0000 -0.0000 -10.6739 -29.8785 -4.0004
3.9246 1.9762 15.8123 -53.4956 -6.7567 -61.4351 0.0000 0.0000 0.0000 -16.7589 6.8659 -86.9366 32.6120 15.6501 129.6732 1.2137 -5.0487 23.1953 1.5849 7.9419 22.5376 0.0000 0.0000 0.0000 15.3861 15.4852 -61.1154 -33.6638 -14.7464 133.6834 -0.2886 15.2611 24.3999 -0.3014 3.5298 -9.7575 -11.2672 6.2652 -6.4114 1.5120 9.0143 -0.9173 8.3188 4.4916 0.6269 0.6369 3.7783 -19.3805 1.0856 6.0269 35.1431 1.5195 2.9004 15.6274 0.0000 0.0000 0.0000 36.8618 -52.4373 -45.6197 17.2737 -27.2172 -4.2118 -0.0000 0.0000 -19.6632 -7.7406 13.2783 -1.7882 -7.1250 0.0000 -0.0000 -30.5451 41.1191 3.2744 0.0000 0.0000 0.0000 85.5123 33.4688 111.4679 -84.4328 59.8826 -55.1805 0.0000 -0.0000 -20.8666 -40.5032 0.0455 -0.0389 7.1250 -0.0000 -0.0000 -10.9309 -29.8279 -4.1134
3.9529 1.9881 15.8275 -54.0529 -6.4051 -61.4408 0.0000 0.0000 0.0000 -16.9455 6.7714 -86.6967 32.5981 15.6612 129.6215 1.2254 -4.9877 23.2556 1.5954 7.9670 22.6140 0.0000 0.0000 0.0000 15.3573 15.5639 -60.9573 -33.6507 -14.7585 133.6322 -0.3679 15.0250 24.8007 -0.2687 3.3346 -9.2116 -11.4283 6.1401 -6.4793 1.5595 8.8720 -0.8578 8.4719 4.4127 0.7273 0.5294 3.7150 -19.4390 1.0551 5.9914 35.2334 1.5231 2.8639 15.6825 -0.0000 -0.0000 0.0000 37.2530 -52.5603 -46.2748 17.2286 -27.1582 -4.1912 -0.0000 0.0000 -19.4000 -7.5322 13.1744 -1.7261 -7.1250 0.0000 -0.0000 -30.3356 41.0497 3.3051 -0.0000 -0.0000 0.0000 85.3062 33.4542 111.2694 -84.3639 59.8796 -55.1209 0.0000 -0.0000 -20.3942 -40.8536 0.0705 -0.0610 7.1250 -0.0000 -0.0000 -11.1992 -29.7903 -4.2281
3.9818 2.0002 15.8433 -54.6226 -6.0560 -61.4346 0.0000 0.0000 0.0000 -17.1203 6.6628 -86.4736 32.5849 15.6717 129.5728 1.2376 -4.9227 23.3179 1.6020 7.9826 22.6613 0.0000 0.0000 0.0000 15.3313 15.6458 -60.8253 -33.6372 -14.7710 133.5789 -0.4521 14.7889 25.2353 -0.2375 3.1365 -8.6591 -11.5889 6.0093 -6.5652 1.6054 8.7247 -0.7953 8.6257 4.3297 0.8435 0.4449 3.6595 -19.5373 1.0208 5.9604 35.3271 1.5234 2.8312 15.7500 0.0000 0.0000 0.0000 37.6728 -52.6702 -46.9291 17.1836 -27.0992 -4.1706 -0.0000 0.0000 -19.1234 -7.3001 13.0837 -1.6611 -7.1250 0.0000 -0.0000 -30.1131 40.9940 3.3216 0.0000 0.0000 0.0000 85.1262 33.4564 111.0864 -84.1517 59.8704 -54.9374 0.0000 -0.0000 -19.7716 -41.3369 0.1632 -0.1436 7.1250 -0.0000 -0.0000 -11.5596 -29.6617 -4.4054
4.0111 2.0124 15.8596 -55.2045 -5.7112 -61.4211 0.0000 0.0000 0.0000 -17.2786 6.5449 -86.2624 32.5737 15.6806 129.5312 1.2491 -4.8590 23.3744 1.6065 7.9933 22.6939 0.0000 0.0000 0.0000 15.3142 15.7341 -60.7136 -33.6226 -14.7844 133.5216 -0.5417 14.5435 25.6950 -0.2052 2.9167 -8.0470 -11.7461 5.8761 -6.6635 1.6519 8.5760 -0.7324 8.7798 4.2451 0.9691 0.3764 3.6051 -19.6572 0.9809 5.9272 35.4264 1.5190 2.7985 15.8266 0.0000 0.0000 0.0000 38.1319 -52.7746 -47.5568 17.1304 -27.0294 -4.1464 -0.0000 0.0000 -18.8748 -7.0330 13.0204 -1.5921 -7.1250 0.0000 -0.0000 -29.8740 40.9656 3.3126 0.0000 0.0000 0.0000 84.9651 33.4665 110.9088 -83.8018 59.8543 -54.6348 0.0000 -0.0000 -19.0176 -41.9287 0.3111 -0.2794 7.1250 -0.0000 -0.0000 -11.9932 -29.4567 -4.6372
4.0414 2.0248 15.8758 -55.7926 -5.3584 -61.4191 0.0000 0.0000 0.0000 -17.4380 6.4217 -86.0223 32.5595 15.6919 129.4785 1.2572 -4.8057 23.4097 1.6086 7.9982 22.7087 0.0000 0.0000 0.0000 15.2910 15.8063 -60.5950 -33.6048 -14.8006 133.4523 -0.6383 14.2987 26.2012 -0.1751 2.6953 -7.4316 -11.9007 5.7529 -6.7462 1.7010 8.4369 -0.6921 8.9312 4.1683 1.0606 0.2729 3.5368 -19.6934 0.9650 5.8785 35.5108 1.5245 2.7597 15.8738 -0.0000 -0.0000 0.0000 38.5707 -52.9558 -48.1642 17.0710 -26.9513 -4.1195 -0.0000 0.0000 -18.5852 -6.7585 12.9827 -1.5251 -7.1250 0.0000 -0.0000 -29.6393 40.9600 3.2851 -0.0000 -0.0000 0.0000 84.7976 33.4152 110.7065 -83.3037 59.8299 -54.2042 0.0000 -0.0000 -18.1149 -42.6570 0.5493 -0.5061 7.1250 -0.0000 -0.0000 -12.5134 -29.1251 -4.9484
4.0724 2.0374 15.8920 -56.3917 -5.0068 -61.4272 0.0000 0.0000 0.0000 -17.5846 6.2963 -85.7616 32.5446 15.7037 129.4238 1.2616 -4.7636 23.4218 1.6126 8.0078 22.7378 0.0000 0.0000 0.0000 15.2752 15.8683 -60.4742 -33.5840 -14.8197 133.3708 -0.7454 14.0302 26.7520 -0.1451 2.4546 -6.7637 -12.0415 5.6400 -6.8131 1.7549 8.3071 -0.6757 9.0760 4.0995 1.1181 0.1421 3.4542 -19.6430 0.9601 5.8152 35.5811 1.5335 2.7143 15.8923 -0.0000 0.0000 0.0000 38.9755 -53.2153 -48.7586 17.0171 -26.8803 -4.0951 -0.0000 0.0000 -18.2313 -6.5133 12.9784 -1.4688 -7.1250 0.0000 -0.0000 -29.4415 40.9809 3.2412 -0.0000 0.0000 0.0000 84.6318 33.3026 110.4756 -82.6737 59.7962 -53.6596 0.0000 -0.0000 -17.0840 -43.5025 0.8397 -0.7968 7.1250 -0.0000 -0.0000 -13.1077 -28.7129 -5.3267
4.1045 2.0503 15.9080 -56.9975 -4.6503 -61.4460 0.0000 0.0000 0.0000 -17.7283 6.1679 -85.4744 32.5276 15.7171 129.3609 1.2633 -4.7239 23.4130 1.6191 8.0230 22.7839 0.0000 0.0000 0.0000 15.2585 15.9145 -60.3520 -33.5601 -14.8415 133.2773 -0.8628 13.7394 27.3446 -0.1149 2.1852 -6.0177 -12.1729 5.5409 -6.8771 1.8079 8.1937 -0.6732 9.2135 4.0407 1.1573 -0.0140 3.3561 -19.5084 0.9691 5.7307 35.6188 1.5451 2.6605 15.8732 -0.0000 -0.0000 0.0000 39.3729 -53.5618 -49.3980 16.9715 -26.8202 -4.0745 -0.0000 0.0000 -17.7686 -6.3318 13.0024 -1.4301 -7.1250 0.0000 -0.0000 -29.3058 41.0202 3.1910 -0.0000 -0.0000 0.0000 84.4697 33.1455 110.1897 -81.9424 59.7532 -53.0277 0.0000 -0.0000 -15.9592 -44.4156 1.1427 -1.1194 7.1250 -0.0000 -0.0000 -13.7424 -28.2705 -5.7471
4.1372 2.0632 15.9244 -57.6196 -4.3076 -61.4753 0.0000 0.0000 0.0000 -17.8465 6.0428 -85.1757 32.5125 15.7290 129.3051 1.2636 -4.6799 23.3903 1.6309 8.0507 22.8683 0.0000 0.0000 0.0000 15.2685 15.9528 -60.2262 -33.5315 -14.8675 133.1657 -0.9890 13.4353 27.9734 -0.0884 1.9172 -5.2769 -12.2746 5.4506 -6.9283 1.8644 8.0872 -0.6873 9.3353 3.9878 1.1744 -0.1894 3.2496 -19.3020 0.9949 5.6324 35.6283 1.5615 2.6024 15.8220 0.0000 -0.0000 0.0000 39.7549 -53.9651 -50.0352 16.9373 -26.7750 -4.0591 -0.0000 0.0000 -17.2212 -6.2262 13.0321 -1.4093 -7.1250 0.0000 -0.0000 -29.2333 41.0570 3.1517 0.0000 -0.0000 0.0000 84.3264 32.9518 109.8635 -81.1532 59.7022 -52.3461 0.0000 -0.0000 -14.7848 -45.3456 1.3768 -1.3931 7.1250 -0.0000 -0.0000 -14.3946 -27.9099 -6.1632
4.1703 2.0758 15.9416 -58.2607 -3.9870 -61.5096 0.0000 0.0000 0.0000 -17.9292 5.9222 -84.8830 32.5029 15.7366 129.2696 1.2658 -4.6037 23.3652 1.6522 8.1006 23.0200 0.0000 0.0000 0.0000 15.3176 15.9886 -60.1039 -33.5005 -14.8956 133.0449 -1.1221 13.1249 28.6284 -0.0656 1.6531 -4.5478 -12.3582 5.3501 -6.9755 1.9197 7.9668 -0.6839 9.4467 3.9255 1.2147 -0.3134 3.1615 -19.1906 1.0070 5.5460 35.6462 1.5690 2.5528 15.8003 -0.0000 -0.0000 0.0000 40.1678 -54.2910 -50.6340 16.9303 -26.7659 -4.0559 -0.0000 0.0000 -16.6469 -6.2327 13.0793 -1.4158 -7.1250 0.0000 -0.0000 -29.2578 41.0978 3.1220 -0.0000 -0.0000 0.0000 84.2598 32.8188 109.5601 -80.3104 59.6422 -51.6186 0.0000 -0.0000 -13.6159 -46.2632 1.5317 -1.6002 7.1250 -0.0000 -0.0000 -15.0466 -27.6497 -6.5568
